<svg xmlns="http://www.w3.org/2000/svg" height="800" width="1200" version="1.0" viewBox="-118.4661 -25.209 1026.7062 151.254"><g fill="#ed1c24"><path d="M640.891 0c-14.654 0-26.882 12.228-26.882 26.882v46.96c0 14.655 12.228 26.883 26.882 26.883H726c14.654 0 26.882-12.228 26.882-26.882v-46.96C752.882 12.227 740.654 0 726 0zm6.09 28.555h72.298V72.17H646.98zM0 2.008v98.828h32.972V30.563h62.249v70.273h32.341V28.89c0-14.654-12.228-26.882-26.882-26.882zm149.871 0v25.99h89.57v7.027h-69.938c-14.654 0-26.882 12.34-26.882 26.994v11.935c0 14.654 12.228 26.882 26.882 26.882H271.79V28.89c0-14.654-12.228-26.882-26.883-26.882zm26.436 59.342h63.135v14.054h-63.135zM292.09 2.008v98.828h33.018V30.563h33.91v70.273h33.017V30.563h34.579v70.273h32.348V28.89c0-14.654-12.228-26.882-26.883-26.882zM505.03 0c-14.655 0-26.883 12.228-26.883 26.882v46.96c0 14.655 12.228 26.883 26.883 26.883h90.351V72.169h-83.63V28.555h83.63V0z"/><path style="line-height:100%;-inkscape-font-specification:'Microsoft Sans Serif';text-align:start" d="M774.026.912c4.308 0 8.01 1.545 11.105 4.633 3.096 3.088 4.643 6.8 4.643 11.137 0 4.336-1.54 8.052-4.622 11.148-3.081 3.095-6.79 4.643-11.126 4.643-4.35 0-8.073-1.545-11.169-4.633-3.095-3.088-4.643-6.808-4.643-11.158s1.551-8.066 4.654-11.148c3.102-3.08 6.821-4.622 11.158-4.622zm-.042 28.967c3.611 0 6.71-1.293 9.296-3.88 2.587-2.586 3.88-5.692 3.88-9.317s-1.29-6.724-3.87-9.297c-2.579-2.572-5.681-3.858-9.306-3.858-3.625 0-6.724 1.286-9.297 3.858-2.572 2.573-3.858 5.672-3.858 9.297 0 3.625 1.286 6.731 3.858 9.317 2.573 2.587 5.672 3.88 9.297 3.88zm7.11-4.455h-3.136l-1.318-3.702c-.795-2.217-2.294-3.325-4.497-3.325h-2.154v7.027h-2.74V8.463h6.38c4.489 0 6.734 1.554 6.734 4.663 0 2.998-1.471 4.609-4.413 4.832 1.506.46 2.621 1.534 3.346 3.22zm-11.105-9.39h3.43c2.691 0 4.037-.886 4.037-2.657 0-1.742-1.388-2.614-4.162-2.614h-3.305z" font-weight="400" font-size="12" font-family="Microsoft Sans Serif"/></g></svg>